<?xml version="1.0" ?><!DOCTYPE svg  PUBLIC '-//W3C//DTD SVG 1.1//EN'  'http://www.w3.org/Graphics/SVG/1.1/DTD/svg11.dtd'><svg height="100%" style="fill-rule:evenodd;clip-rule:evenodd;stroke-miterlimit:10;" version="1.1" viewBox="0 0 503 516" width="100%" xml:space="preserve" xmlns="http://www.w3.org/2000/svg" xmlns:serif="http://www.serif.com/" xmlns:xlink="http://www.w3.org/1999/xlink"><rect height="515.633" id="_10.-Dedicated-IP" style="fill:none;" width="501.738" x="0.297" y="-0.005"/><clipPath id="_clip1"><rect height="515.633" width="501.738" x="0.297" y="-0.005"/></clipPath><g clip-path="url(#_clip1)"><path d="M379.671,125.614c0,0 16.445,41.941 -34.027,103.125c-55.598,67.399 -195.589,119.015 -239.609,94.798c5.895,13.257 122.188,35.696 218.911,-56.125c79.755,-75.712 54.725,-141.798 54.725,-141.798Z" id="Shape-3-copy" style="fill:#cce6ff;"/><path d="M243.915,74.462c-60.389,0 -109.336,49.276 -109.336,110.07c0,107.539 109.336,199.15 109.336,199.15c0,0 109.336,-89.127 109.336,-199.15c0,-60.794 -48.947,-110.07 -109.336,-110.07" id="Shape-1" style="fill:url(#_Linear2);stroke:#cce6ff;stroke-width:23.56px;"/><path d="M223.253,233.005l0,-60.864c0,-4.291 -3.613,-7.904 -7.904,-7.904c-4.517,0 -8.13,3.613 -8.13,7.904l0,60.864c0,4.291 3.613,7.905 7.904,7.905c4.517,0 8.13,-3.614 8.13,-7.905Zm56.911,-68.091c16.392,0.024 25.294,11.081 25.294,24.278c0,13.099 -9.034,24.278 -25.294,24.278l-19.197,0l0,19.535c0,4.291 -3.613,7.905 -8.13,7.905c-4.291,0 -7.905,-3.614 -7.905,-7.905l0,-59.057c0,-4.952 4.038,-9.006 9.034,-9.034l26.198,0Zm-2.146,34.441c6.348,-0.02 11.066,-3.968 11.066,-10.163c0,-6.323 -4.742,-10.163 -11.066,-10.163l-17.051,0l0,20.326l17.051,0Z" id="IP" style="fill:#2dc000;"/><path d="M319.055,292.928c1.973,0.436 3.096,2.557 2.169,4.676c-0.166,0.379 -0.335,0.757 -0.507,1.133c-7.654,16.732 -19.876,31.041 -32.53,44.728c-7.829,8.468 -16.005,16.656 -24.568,24.322c0,0 -1.841,1.35 -3.455,0.638c-1.717,-0.757 -2.366,-3.238 -1.217,-4.74c0.557,-0.728 0.803,-0.791 1.153,-1.107c17.586,-15.927 34.295,-33.154 47.418,-53.096c3.053,-4.639 5.859,-9.455 8.077,-14.546c0,0 1.329,-2.27 3.46,-2.008Z" style="fill:#fff;fill-rule:nonzero;"/><path d="M97.912,322.536c0,0 -19.658,-45.514 33.599,-114.679c58.666,-76.19 210.782,-138.162 260.121,-113.167c-6.98,-14.361 -135.778,-34.713 -238.787,69.866c-84.938,86.232 -54.933,157.98 -54.933,157.98Z" id="Shape-3" style="fill:#0094ff;"/><path d="M84.96,248.338c-0.093,-0.115 -7.33,-37.666 20,-99c31.737,-71.225 107.282,-113.368 149.792,-108.307c-8.891,-8.587 -103.257,-7.449 -155.792,93.307c-27.229,52.22 -14,114 -14,114Z" id="Shape-3-copy-2" style="fill:#a3deff;"/><g id="Dedicated"><rect height="36.016" id="Rectangle-1-copy" style="fill:url(#_Linear3);" width="489" x="0.497" y="434.97"/><path d="M483.778,443.956c0,-3.257 -2.644,-5.902 -5.901,-5.902l-463.635,0c-3.257,0 -5.901,2.645 -5.901,5.902l0,0.013c0,3.257 2.644,5.902 5.901,5.902l463.635,0c3.257,0 5.901,-2.645 5.901,-5.902l0,-0.013Z" id="Rounded-Rectangle-1-copy" style="fill:url(#_Linear4);"/><path d="M274.939,436.179c0,-7.233 -5.872,-13.105 -13.105,-13.105l-33.674,0c-7.233,0 -13.105,5.872 -13.105,13.105l0,33.582c0,7.233 5.872,13.106 13.105,13.106l33.674,0c7.233,0 13.105,-5.873 13.105,-13.106l0,-33.582Z" id="Rounded-Rectangle-1-copy-7" style="fill:url(#_Linear5);"/></g></g><defs><linearGradient gradientTransform="matrix(7.93106e-15,129.524,-129.524,7.93106e-15,191.002,280.422)" gradientUnits="userSpaceOnUse" id="_Linear2" x1="0" x2="1" y1="0" y2="0"><stop offset="0" style="stop-color:#fff;stop-opacity:1"/><stop offset="1" style="stop-color:#d0e4fc;stop-opacity:1"/></linearGradient><linearGradient gradientTransform="matrix(471.803,0,0,708.019,10.4947,458.257)" gradientUnits="userSpaceOnUse" id="_Linear3" x1="0" x2="1" y1="0" y2="0"><stop offset="0" style="stop-color:#fff;stop-opacity:0"/><stop offset="0.15" style="stop-color:#7ad5ff;stop-opacity:1"/><stop offset="0.87" style="stop-color:#7ad5ff;stop-opacity:1"/><stop offset="1" style="stop-color:#fff;stop-opacity:0"/></linearGradient><linearGradient gradientTransform="matrix(475.437,0,0,11.8163,8.34073,443.962)" gradientUnits="userSpaceOnUse" id="_Linear4" x1="0" x2="1" y1="0" y2="0"><stop offset="0" style="stop-color:#fff;stop-opacity:0"/><stop offset="0.11" style="stop-color:#fff;stop-opacity:0.65098"/><stop offset="0.91" style="stop-color:#fff;stop-opacity:0.65098"/><stop offset="1" style="stop-color:#fff;stop-opacity:0"/></linearGradient><linearGradient gradientTransform="matrix(-0.955743,106.338,-106.338,-0.955743,246.357,394.337)" gradientUnits="userSpaceOnUse" id="_Linear5" x1="0" x2="1" y1="0" y2="0"><stop offset="0" style="stop-color:#7ad6ff;stop-opacity:1"/><stop offset="1" style="stop-color:#2684fb;stop-opacity:1"/></linearGradient></defs></svg>