<?xml version="1.0" ?><!DOCTYPE svg  PUBLIC '-//W3C//DTD SVG 1.1//EN'  'http://www.w3.org/Graphics/SVG/1.1/DTD/svg11.dtd'><svg enable-background="new 341.7 -202.066 35.898 33.03" height="33.03px" id="Layer_1" version="1.1" viewBox="341.7 -202.066 35.898 33.03" width="35.898px" xml:space="preserve" xmlns="http://www.w3.org/2000/svg" xmlns:xlink="http://www.w3.org/1999/xlink"><g><g><path d="M368.621-169.035c-1.391,0-2.581-0.684-3.132-1c-2.354-1.352-7.952-1.359-10.33-0.014    c-1.397,0.791-3.364,1.06-4.778,0.656c-1.739-0.498-3.348-1.26-5.208-2.144c-0.801-0.38-1.644-0.779-2.553-1.183    c-0.271-0.12-0.445-0.389-0.445-0.687v-13.712c0-0.052,0.007-0.104,0.017-0.152c-0.008-0.036-0.012-0.072-0.016-0.109    l-0.475-8.092c-0.012-0.207,0.063-0.408,0.203-0.56c0.141-0.15,0.34-0.234,0.546-0.234h33.401c0.361,0,0.673,0.259,0.737,0.616    c0.104,0.565,0.229,1.126,0.352,1.682c0.272,1.228,0.557,2.498,0.587,3.78c0.066,2.869,0.059,5.781,0.05,8.6    c-0.007,2.327-0.015,4.653,0.021,6.979c0.019,1.27-0.256,2.14-0.86,2.735c-0.592,0.583-1.478,0.852-2.688,0.813    c-1.361-0.031-1.96,0.216-2.097,0.371C370.854-169.432,369.679-169.036,368.621-169.035z M360.307-172.573    c2.246,0,4.491,0.413,5.928,1.237c2.003,1.149,3.375,1.05,4.588-0.339c0.552-0.631,1.662-0.933,3.269-0.883    c0.796,0.018,1.309-0.103,1.593-0.381c0.29-0.286,0.425-0.824,0.413-1.646c-0.034-2.334-0.027-4.67-0.021-7.005    c0.009-2.808,0.019-5.712-0.05-8.561c-0.026-1.136-0.281-2.279-0.551-3.49c-0.083-0.372-0.166-0.747-0.243-1.124h-31.988    l0.429,7.298c0.005,0.068-0.002,0.134-0.015,0.197c0.011,0.049,0.016,0.101,0.016,0.152v13.227    c0.754,0.341,1.463,0.677,2.142,0.999c1.801,0.854,3.355,1.592,4.978,2.056c1.026,0.292,2.585,0.07,3.628-0.52    C355.855-172.167,358.082-172.573,360.307-172.573z"/></g><g><path d="M365.827-195.527c-0.414,0-0.75-0.336-0.75-0.75v-4.289h-10.104v4.289c0,0.414-0.336,0.75-0.75,0.75    s-0.75-0.336-0.75-0.75v-5.039c0-0.414,0.336-0.75,0.75-0.75h11.604c0.414,0,0.75,0.336,0.75,0.75v5.039    C366.577-195.864,366.241-195.527,365.827-195.527z"/></g><g><path d="M371.934-183.465h-6.946c-0.367,0-0.68-0.266-0.74-0.627l-0.381-2.289c-0.068-0.408,0.207-0.795,0.615-0.863    c0.413-0.063,0.796,0.208,0.862,0.616l0.278,1.664h5.562v-1.54c0-0.414,0.336-0.75,0.75-0.75s0.75,0.336,0.75,0.75v2.29    C372.684-183.801,372.348-183.465,371.934-183.465z"/></g><g><path d="M353.662-183.277c-0.133,0-0.271-0.006-0.414-0.017c-0.932-0.071-1.905-0.054-2.935-0.036    c-0.506,0.01-1.032,0.019-1.587,0.019c-0.414,0-0.75-0.336-0.75-0.75v-2.443c0-0.414,0.336-0.75,0.75-0.75s0.75,0.336,0.75,0.75    v1.688c0.276-0.003,0.547-0.009,0.812-0.014c1.065-0.017,2.07-0.035,3.074,0.04c0.4,0.03,0.932,0.018,1.162-0.224    c0.201-0.211,0.263-0.695,0.176-1.4c-0.051-0.411,0.241-0.786,0.652-0.836c0.421-0.052,0.785,0.242,0.836,0.652    c0.095,0.766,0.137,1.87-0.579,2.62C355.161-183.507,354.521-183.277,353.662-183.277z"/></g><g><path d="M365.94-186.386c-0.142,0-0.281,0-0.422-0.001c-5.306-0.024-10.696-0.108-15.91-0.189c-2.13-0.032-4.26-0.065-6.391-0.096    c-0.413-0.006-0.744-0.346-0.738-0.76c0.006-0.411,0.341-0.74,0.75-0.74c0.003,0,0.007,0,0.011,0    c2.131,0.029,4.261,0.063,6.392,0.096c5.21,0.081,10.598,0.165,15.896,0.189c2.453,0.008,4.938-0.081,7.35-0.171    c1.104-0.041,2.208-0.082,3.313-0.114c0.399-0.031,0.76,0.314,0.771,0.729c0.013,0.413-0.313,0.759-0.729,0.771    c-1.101,0.032-2.2,0.073-3.3,0.114C370.642-186.474,368.279-186.386,365.94-186.386z"/></g></g></svg>